{"title":"Rain Man 1988 DVD9rip English Klam","uid":10226737,"size":2206357226,"categoryP":"video","categoryS":"movies","magnet":"?xt=urn:btih:e59a96aae52003a94ceedf0d9c66b7d2f64003cd&amp;dn=Rain+Man+1988+DVD9rip+English+Klam&amp;tr=udp%3A%2F%2Ftracker.openbittorrent.com%3A80&amp;tr=udp%3A%2F%2Fopen.demonii.com%3A1337&amp;tr=udp%3A%2F%2Ftracker.coppersurfer.tk%3A6969&amp;tr=udp%3A%2F%2Fexodus.desync.com%3A6969","seeders":0,"leechers":0,"uploader":"Klambake","files":-1,"time":1401095303,"description":" &lt;a href=&quot;http://i.imgur.com/XYGMZRO.jpg&quot; rel=&quot;nofollow&quot; target=&quot;_NEW&quot;&gt;http://i.imgur.com/XYGMZRO.jpg&lt;/a&gt;\n\nWith: Dustin Hoffman, Tom Cruise and Valeria Golino\n\nAls de vader van de yuppie Charlie overlijdt, erft hij een oldtimer en een rozentuin. Hij komt tevens tot de ontdekking dat hij nog een broer heeft. Raymond is autistisch, maar is wel in staat om ingewikkelde wiskundige vraagstukken op te lossen. Hun vader heeft al zijn geld achter gelaten aan Raymond, terwijl die totaal geen idee heeft waar geld voor dient. Charlie is woedend en ontvoert Raymond uit zijn verzorgtehuis. Hij wil hem meenemen naar Los Angeles, maar Raymond weigert te reizen met een vliegtuig en dus zijn ze gedwongen om per auto te reizen. Wat volgt is een lange rit waarbij de twee elkaar leren te waarderen.\n\nSelfish yuppie Charlie Babbitt's father left a fortune to his savant brother Raymond and a pittance to Charlie; they travel cross-country.\n &lt;a href=&quot;\nhttp://www.imdb.com/title/tt0095953&quot; rel=&quot;nofollow&quot; target=&quot;_NEW&quot;&gt;\nhttp://www.imdb.com/title/tt0095953&lt;/a&gt;\t\n\n--------------------- Dutch Friends 4ever ---------------------\n---------------------------------------------------------------\n- Bezoek ook eens mijn vrienden op: &lt;a href=&quot; http://www.Film-Test.nl&quot; rel=&quot;nofollow&quot; target=&quot;_NEW&quot;&gt; http://www.Film-Test.nl&lt;/a&gt; --\n----- voor mijn Nederlandse Sync. ondertitels ---- en meer ----\n------- http://www.Film-Test.nl ---- Over Films en meer -------\n---------------------------------------------------------------\n\nGeneral:\n\nComplete name                            : Rain ManRain Man.avi\nFormat                                   : AVI\nFormat/Info                              : Audio Video Interleave\nFile size                                : 2.05 GiB\nDuration                                 : 2h 7mn\nOverall bit rate                         : 2 298 Kbps\n\nVideo:\n\nFormat                                   : MPEG-4 Visual\nFormat profile                           : Simple@L3\nFormat settings, BVOP                    : No\nFormat settings, QPel                    : No\nFormat settings, GMC                     : No warppoints\nFormat settings, Matrix                  : Default (H.263)\nCodec ID                                 : XVID\nCodec ID/Hint                            : XviD\nDuration                                 : 2h 7mn\nSource duration                          : 2h 7mn\nBit rate                                 : 1 903 Kbps\nWidth                                    : 704 pixels\nHeight                                   : 396 pixels\nDisplay aspect ratio                     : 16:9\nFrame rate                               : 25.000 fps\nColor space                              : YUV\nChroma subsampling                       : 4:2:0\nBit depth                                : 8 bits\nScan type                                : Progressive\nCompression mode                         : Lossy\nBits/(Pixel*Frame)                       : 0.273\nStream size                              : 1.70 GiB (83%)\nWriting library                          : XviD 1.1.2 (UTC 2006-11-01)\n\nAudio:\n\nFormat                                   : AC-3\nFormat/Info                              : Audio Coding 3\nMode extension                           : CM (complete main)\nFormat settings, Endianness              : Big\nCodec ID                                 : 2000\nDuration                                 : 2h 7mn\nBit rate mode                            : Constant\nBit rate                                 : 384 Kbps\nChannel(s)                               : 6 channels\nChannel positions                        : Front: L C R, Side: L R, LFE\nSampling rate                            : 48.0 KHz\nBit depth                                : 16 bits\nCompression mode                         : Lossy\nStream size                              : 352 MiB (17%)\nAlignment                                : Aligned on interleaves\nInterleave, duration                     : 32 ms (0.80 video frame)\n\n\n\n","torrent":{"xt":"urn:btih:e59a96aae52003a94ceedf0d9c66b7d2f64003cd","amp;dn":"Rain+Man+1988+DVD9rip+English+Klam","amp;tr":["udp%3A%2F%2Ftracker.openbittorrent.com%3A80","udp%3A%2F%2Fopen.demonii.com%3A1337","udp%3A%2F%2Ftracker.coppersurfer.tk%3A6969","udp%3A%2F%2Fexodus.desync.com%3A6969"],"infoHash":"e59a96aae52003a94ceedf0d9c66b7d2f64003cd","infoHashBuffer":{"type":"Buffer","data":[229,154,150,170,229,32,3,169,76,238,223,13,156,102,183,210,246,64,3,205]},"announce":[],"urlList":[]}}